HIERARCHY
ROOT root     
{
	OFFSET 0.0000 0.0000 0.0000
	CHANNELS 6 Xposition Yposition Zposition Zrotation Yrotation Xrotation
	JOINT pelvis   
	{
		OFFSET 0.0000 0.0000 0.0000
		CHANNELS 3 Zrotation Yrotation Xrotation
		JOINT thorax   
		{
			OFFSET 0.0000 23.0750 -5.0000
			CHANNELS 3 Zrotation Yrotation Xrotation
			JOINT rclavicle
			{
				OFFSET 0.0000 28.0009 0.0000
				CHANNELS 3 Zrotation Yrotation Xrotation
				JOINT rhumerus 
				{
					OFFSET -18.5725 5.5939 0.0000
					CHANNELS 3 Zrotation Yrotation Xrotation
					JOINT rradius  
					{
						OFFSET -24.8459 0.0000 0.0000
						CHANNELS 3 Zrotation Yrotation Xrotation
						JOINT rhand    
						{
							OFFSET -24.5477 0.0000 0.0000
							CHANNELS 3 Zrotation Yrotation Xrotation
							End Site
							{
								OFFSET -8.1826 0.0000 0.0000
							}
						}
					}
				}
			}
			JOINT lclavicle
			{
				OFFSET 0.0000 28.0009 0.0000
				CHANNELS 3 Zrotation Yrotation Xrotation
				JOINT lhumerus 
				{
					OFFSET 18.5725 5.5939 0.0000
					CHANNELS 3 Zrotation Yrotation Xrotation
					JOINT lradius  
					{
						OFFSET 24.8459 0.0000 0.0000
						CHANNELS 3 Zrotation Yrotation Xrotation
						JOINT lhand    
						{
							OFFSET 24.5477 0.0000 0.0000
							CHANNELS 3 Zrotation Yrotation Xrotation
							End Site
							{
								OFFSET 8.1826 0.0000 0.0000
							}
						}
					}
				}
			}
			JOINT head     
			{
				OFFSET 0.0000 35.2030 0.0000
				CHANNELS 3 Zrotation Yrotation Xrotation
				End Site
				{
					OFFSET 0.0000 11.7343 0.0000
				}
			}
		}
		JOINT rfemur   
		{
			OFFSET -8.2817 0.0000 0.0000
			CHANNELS 3 Zrotation Yrotation Xrotation
			JOINT rtibia   
			{
				OFFSET 0.0000 -43.3627 0.0000
				CHANNELS 3 Zrotation Yrotation Xrotation
				JOINT rfoot    
				{
					OFFSET 0.0000 -38.2947 0.0000
					CHANNELS 3 Zrotation Yrotation Xrotation
					JOINT rtoes    
					{
						OFFSET 0.0000 0.0000 16.6054
						CHANNELS 3 Zrotation Yrotation Xrotation
						End Site
						{
							OFFSET 0.0000 0.0000 5.5351
						}
					}
				}
			}
		}
		JOINT lfemur   
		{
			OFFSET 8.2817 0.0000 0.0000
			CHANNELS 3 Zrotation Yrotation Xrotation
			JOINT ltibia   
			{
				OFFSET 0.0000 -43.3627 0.0000
				CHANNELS 3 Zrotation Yrotation Xrotation
				JOINT lfoot    
				{
					OFFSET 0.0000 -38.2947 0.0000
					CHANNELS 3 Zrotation Yrotation Xrotation
					JOINT ltoes    
					{
						OFFSET 0.0000 0.0000 16.6054
						CHANNELS 3 Zrotation Yrotation Xrotation
						End Site
						{
							OFFSET 0.0000 0.0000 5.5351
						}
					}
				}
			}
		}
	}
}
MOTION
Frames: 7
Frame Time: .0333333
-66.688 78.32 -2.4102 -55.8552 -86.5648 84.2379 0 -0 0 -11.313 -3.17519 22.0155 15.4156 -5.43393 -4.19228e-06 65.4961 -7.77061 16.4939 -0 52.295 -0 -2.02215 4.15514 -0.0733984 -10.6282 8.65462 -3.05755e-06 -42.1701 -23.4289 -0.64327 1.22492e-06 -73.8201 -9.20029e-07 -3.98723 6.16048 -0.214602 0.566299 4.12032 -6.29669 6.46188 -7.82853 -49.1986 -0 -0 78.3809 -1.4815e-06 -8.26953 -5.74973 0.834197 3.81865e-06 -30.1514 -7.15235 5.10924 -59.3687 -0 -0 58.4523 6.42899e-05 13.1663 -14.168 -3.27708 -1.55472e-05 -13.3121 
-67.527 78.488 -2.4631 -57.6464 -86.4654 85.8544 0 -0 0 -11.114 -3.31963 21.8721 15.4322 -5.47964 8.99079e-06 65.3561 -8.13711 16.2755 0 51.2389 0 -2.25845 4.16813 -0.0822031 -10.2889 8.64435 -1.38556e-06 -41.321 -24.1669 -0.853033 -1.35691e-06 -74.3953 1.7878e-06 -3.95669 6.06515 -0.209699 0.687997 4.24886 -6.17843 6.4973 -7.32849 -50.5947 -0 -0 77.7477 -9.18069e-06 -8.21531 -6.1279 0.883007 3.57904e-06 -29.6231 -7.0391 5.50539 -58.5416 -0 -0 58.3439 -7.28589e-05 13.106 -14.4145 -3.31677 1.83548e-05 -14.3341 
-68.368 78.649 -2.5178 -59.6436 -86.3604 87.6849 0 -0 0 -10.8999 -3.46469 21.6954 15.4467 -5.55544 -9.45069e-06 65.1995 -8.48102 16.0351 -0 50.2473 -0 -2.51149 4.19857 -0.0920987 -9.9583 8.65648 7.61074e-06 -40.4679 -24.8304 -1.08506 1.30829e-06 -74.997 -1.00383e-06 -3.94152 5.96012 -0.205301 0.803609 4.35794 -6.10519 6.54318 -6.8377 -51.9506 -0 -0 76.9664 -6.59697e-06 -8.2139 -6.38297 0.91939 2.9905e-06 -29.3406 -6.92109 5.92424 -57.7493 -0 -0 58.2781 -3.2202e-05 13.0527 -14.5931 -3.34288 1.10409e-05 -15.4625 
-69.211 78.802 -2.5741 -61.6446 -86.2502 89.524 0 -0 0 -10.6672 -3.6229 21.4931 15.4644 -5.63362 1.0947e-05 65.0276 -8.83853 15.728 0 49.3523 0 -2.73351 4.23115 -0.101 -9.6609 8.69648 4.6051e-06 -39.5751 -25.4337 -1.33967 -1.49107e-06 -75.6257 1.92135e-06 -3.95355 5.85722 -0.202304 0.917442 4.44862 -6.0771 6.60834 -6.37698 -53.2545 -0 -0 76.0282 -4.52186e-06 -8.25901 -6.52747 0.945418 -5.84073e-06 -29.3057 -6.7955 6.3561 -56.9932 -0 -0 58.2614 2.47681e-05 13.0008 -14.7039 -3.35394 5.83982e-06 -16.6136 
-70.056 78.948 -2.6323 -63.5027 -86.1341 91.225 0 -0 0 -10.4241 -3.79633 21.2736 15.486 -5.73309 -1.02284e-05 64.8304 -9.187 15.396 -0 48.5454 -0 -2.91876 4.26664 -0.108704 -9.37602 8.75258 8.48202e-06 -38.6731 -25.9663 -1.62341 -1.11164e-06 -76.2806 1.41567e-06 -4.00996 5.75174 -0.2015 1.04105 4.51571 -6.09424 6.69614 -5.95902 -54.5022 -0 -0 74.9347 2.36384e-07 -8.34641 -6.57265 0.962111 -3.32316e-07 -29.513 -6.66315 6.79201 -56.2764 -0 -0 58.2992 0.000107713 12.9399 -14.7457 -3.34708 9.26129e-07 -17.7774 
-70.904 79.087 -2.692 -65.114 -85.9954 92.6839 0 -0 0 -10.1737 -3.9879 21.0424 15.5122 -5.8485 2.59569e-05 64.6116 -9.53292 15.0388 -0 47.8389 -0 -3.04981 4.29585 -0.1144 -9.10116 8.81938 -1.61708e-06 -37.7647 -26.4283 -1.93812 0 -76.9601 0 -4.11922 5.64489 -0.203202 1.18247 4.55617 -6.15347 6.80881 -5.59431 -55.6889 -0 -0 73.6825 -9.66118e-07 -8.46924 -6.53086 0.970303 -1.20527e-06 -29.9253 -6.52434 7.22552 -55.5965 -0 -0 58.3929 -5.19021e-05 12.8638 -14.717 -3.32014 1.90612e-05 -18.9895 
-71.756 79.218 -2.7528 -66.3777 -85.8878 93.7962 0 -0 0 -9.92306 -4.19731 20.8063 15.5444 -5.98689 2.36438e-05 64.3632 -9.86805 14.684 3.56094e-07 47.2263 8.14555e-07 -3.12461 4.31413 -0.117701 -8.82638 8.88965 3.98959e-06 -36.8662 -26.8177 -2.28244 1.55544e-06 -77.6527 -1.25181e-06 -4.28244 5.53779 -0.207195 1.35049 4.5663 -6.25144 6.94584 -5.28989 -56.8093 -0 -0 72.2739 2.70675e-06 -8.61929 -6.4141 0.970095 1.31895e-06 -30.4758 -6.38093 7.65181 -54.9466 -0 -0 58.541 8.49772e-05 12.7625 -14.6248 -3.27336 5.93584e-07 -20.238 
